<?xml version="1.0" encoding="iso-8859-1"?>
<!-- Generator: Adobe Illustrator 19.0.0, SVG Export Plug-In . SVG Version: 6.00 Build 0)  -->
<svg version="1.1" id="Capa_1" xmlns="http://www.w3.org/2000/svg" xmlns:xlink="http://www.w3.org/1999/xlink" x="0px" y="0px"
	 viewBox="0 0 512 512" style="enable-background:new 0 0 512 512;" xml:space="preserve">
<g>
	<g>
		<path d="M458.5,225.58V133c-3.503-32.561-31.524-58-65-58h-15v85.549c-9.161-24.81-33.046-42.549-61-42.549h-8.648
			c0.421-2.606,0.648-5.277,0.648-8V90h15V65c0-35.841-29.159-65-65-65s-65,29.159-65,65v25h15v20c0,2.723,0.227,5.394,0.648,8
			H201.5c-30.678,0-56.442,21.369-63.234,50H133.5V75h-15c-33.476,0-61.497,25.439-65,58v92.58c-17.459,6.192-30,22.865-30,42.42
			s12.541,36.228,30,42.42V339c0,35.841,29.159,65,65,65h54.547l-10,108h80.128l10-108h12.65l10,108h80.128l-10-108H393.5
			c35.841,0,65-29.159,65-65v-28.58c17.459-6.192,30-22.865,30-42.42C488.5,248.445,475.959,231.772,458.5,225.58z M408.5,108.38
			c10.841,5.163,18.605,15.746,19.816,28.219c-1.271,12.389-9.032,22.88-19.816,28.017V108.38z M259.5,30
			c17.602,0,32.21,13.061,34.644,30h-69.288C227.29,43.061,241.898,30,259.5,30z M279.5,90v20c0,11.028-8.972,20-20,20
			s-20-8.972-20-20V90H279.5z M201.5,148h25.558c8.74,7.472,20.069,12,32.442,12s23.702-4.528,32.442-12H317.5
			c13.933,0,25.988,8.186,31.616,20H169.884C175.512,156.186,187.567,148,201.5,148z M103.5,108.38v56.236
			c-10.784-5.137-18.545-15.628-19.816-28.017C84.895,124.126,92.659,113.543,103.5,108.38z M68.5,283c-8.271,0-15-6.729-15-15
			s6.729-15,15-15h15v30H68.5z M215.825,482h-19.872l7.222-78h19.872L215.825,482z M303.175,482l-7.222-78h19.872l7.222,78H303.175z
			 M428.5,339c0,19.299-15.701,35-35,35h-275c-19.299,0-35-15.701-35-35v-26h30v-90h-30v-35.249
			c10.109,6.484,22.124,10.249,35,10.249h275c12.876,0,24.891-3.764,35-10.249V223h-30v90h30V339z M443.5,283h-15v-30h15
			c8.271,0,15,6.729,15,15S451.771,283,443.5,283z"/>
	</g>
</g>
<g>
</g>
<g>
</g>
<g>
</g>
<g>
</g>
<g>
</g>
<g>
</g>
<g>
</g>
<g>
</g>
<g>
</g>
<g>
</g>
<g>
</g>
<g>
</g>
<g>
</g>
<g>
</g>
<g>
</g>
</svg>
