<?xml version="1.0" encoding="iso-8859-1"?>
<!-- Generator: Adobe Illustrator 19.0.0, SVG Export Plug-In . SVG Version: 6.00 Build 0)  -->
<svg version="1.1" id="Capa_1" xmlns="http://www.w3.org/2000/svg" xmlns:xlink="http://www.w3.org/1999/xlink" x="0px" y="0px"
	 viewBox="0 0 511.997 511.997" style="enable-background:new 0 0 511.997 511.997;" xml:space="preserve">
<g>
	<g>
		<path d="M505.331,469.322c-6.898-4.497-16.196-2.697-20.993,4.2c-7.498,11.397-26.194,11.998-34.292,1.5l29.393-62.783
			c2.4-4.498,1.799-9.896-0.901-14.395c-2.698-4.199-7.498-6.897-12.596-6.897h-224.94c0-10.022,0-20.058,0-29.992H435.95
			c4.306,0,8.392-1.846,11.247-5.067c2.841-3.236,4.174-7.527,3.632-11.789l-3.954-31.618
			C434.002,209.471,352.352,88.49,241.002,65.027c0-16.3,0-32.871,0-49.982c0-9.401-9.881-16.831-18.628-14.542L102.406,30.495
			c-6.678,1.67-11.364,7.659-11.364,14.542c0,6.883,4.687,12.873,11.364,14.542L211.01,86.745v13.98L63.335,338.005
			c-2.899,4.628-3.046,10.456-0.41,15.216c2.65,4.774,7.674,7.732,13.121,7.732h134.964v29.992H45.055
			c-5.098,0-9.898,2.698-12.596,6.897c-2.7,4.5-3.3,9.898-0.901,14.395l17.696,38.79c-1.5-0.3-2.7-0.3-4.199-0.3
			c-17.095,0-32.99,8.699-42.588,22.794c-4.5,6.899-2.7,16.197,4.198,20.994c6.899,4.5,16.197,2.7,20.994-4.199
			c7.798-11.996,26.994-11.996,34.792,0c9.597,14.097,25.492,21.595,42.588,21.595c18.309,0,36.32-9.471,43.587-21.595
			c7.798-11.996,26.994-11.996,34.792,0c11.65,15.564,26.054,21.595,42.588,21.595c17.571,0,33.587-8.055,42.588-21.595
			c7.798-11.996,26.994-11.996,34.792,0c0.599,0.601,0.899,1.5,1.799,2.099c9.297,12.897,24.593,19.496,40.789,19.496
			c23.79,0,33.327-12.336,42.588-21.595c7.798-11.996,26.994-11.996,34.792,0c0,4.207,19.303,21.595,42.588,21.595
			c17.095,0,33.99-7.498,43.587-21.595C514.029,483.419,512.229,474.122,505.331,469.322z M241.002,113.444
			c19.071,23.964,29.992,53.777,29.992,82.553c0,33.215-11.635,77.621-29.992,108.889
			C241.002,243.564,241.002,180.778,241.002,113.444z"/>
	</g>
</g>
<g>
</g>
<g>
</g>
<g>
</g>
<g>
</g>
<g>
</g>
<g>
</g>
<g>
</g>
<g>
</g>
<g>
</g>
<g>
</g>
<g>
</g>
<g>
</g>
<g>
</g>
<g>
</g>
<g>
</g>
</svg>
